<?xml version="1.0" encoding="UTF-8"?>
<svg width="153px" height="153px" viewBox="0 0 153 153" version="1.1" xmlns="http://www.w3.org/2000/svg" xmlns:xlink="http://www.w3.org/1999/xlink">
    <title>Group 4</title>
    <defs>
        <filter id="filter-1">
            <feColorMatrix in="SourceGraphic" type="matrix" values="0 0 0 0 1.000000 0 0 0 0 1.000000 0 0 0 0 1.000000 0 0 0 1.000000 0"></feColorMatrix>
        </filter>
    </defs>
    <g id="🖥-Desktop-+-Mobile" stroke="none" stroke-width="1" fill="none" fill-rule="evenodd">
        <g id="Desktop-1440-homepage-001" transform="translate(-131.000000, -464.000000)">
            <g id="/hero" transform="translate(0.000000, 214.206107)">
                <g id="Group-4" transform="translate(131.000000, 249.793893)">
                    <circle id="Oval" fill="#000000" cx="76.5" cy="76.5" r="76.5"></circle>
                    <g filter="url(#filter-1)" id="scroll">
                        <g transform="translate(13.000000, 13.000000)">
                            <path d="M10,68.0411899 L0.730106645,72 L0.516817063,69.078566 L4.8728466,67.453852 C5.27481542,67.3012967 5.74241181,67.1487414 6.27563577,66.9885584 C6.80885972,66.8360031 7.33388023,66.6987033 7.86710418,66.5842868 L7.85069729,66.3325706 C7.23543888,66.2639207 6.64479081,66.187643 6.08695652,66.0961098 C5.52912223,66.0045767 5.09433962,65.9206712 4.7662018,65.8443936 L0.205086136,64.7765065 L0,62 L9.75389664,64.7078566 L10,68.0411899 Z" id="Path" fill="#000000" fill-rule="nonzero"></path>
                            <path d="M10.2376564,58.5189927 C10.1726031,59.0897414 10.0343648,59.5612294 9.83920488,59.9500002 C9.64404493,60.338771 9.38383166,60.6200094 9.07482841,60.7937155 C8.76582515,60.9674216 8.40803191,61.0335954 8.00144868,60.9839651 C7.49728548,60.926063 7.09883391,60.71927 6.79796232,60.3884013 C6.49709073,60.0492608 6.27753579,59.5943162 6.13929749,59.0070242 C6.00105919,58.4197321 5.94413754,57.7083643 5.94413754,56.8646489 L5.9522692,54.4327635 L5.66766094,54.3996766 C5.49689599,54.3748614 5.32613103,54.4079483 5.17976107,54.4906655 C5.02525944,54.5733827 4.89515281,54.7140019 4.78944117,54.9125232 C4.68372953,55.1110444 4.61054455,55.359196 4.56988622,55.6735213 C4.5292279,56.0126618 4.5292279,56.2939003 4.57801789,56.5337801 C4.61867621,56.77366 4.69999286,56.9639095 4.82196783,57.1045288 C4.9439428,57.245148 5.09031276,57.3526803 5.26107771,57.4105824 L4.82196783,60.3635861 C4.31780462,60.2560538 3.91935306,60.0079022 3.62661313,59.6108597 C3.33387321,59.2138172 3.14684492,58.6761554 3.05739661,57.9896027 C2.9679483,57.30305 2.98421163,56.4758781 3.09805493,55.4998152 C3.2200299,54.4823938 3.40705819,53.6634936 3.66727145,53.0431146 C3.92748472,52.4227357 4.26088297,51.9843346 4.67559786,51.7279113 C5.09031276,51.471488 5.59447596,51.3804991 6.19621914,51.4549446 L8.95285344,51.794085 C9.0992234,51.8106285 9.20493504,51.8106285 9.27812002,51.7858133 C9.351305,51.7692699 9.40822666,51.7196396 9.44075331,51.6534658 C9.47327997,51.5872921 9.49767497,51.4880314 9.5139383,51.3639556 L9.55459662,51 L10.9939013,51.4384011 C11.0020329,51.6038355 11.0020329,51.7775416 10.9939013,51.9512477 C10.9857696,52.1249538 10.9776379,52.3069316 10.9532429,52.4889095 C10.8800579,53.1175601 10.7499513,53.5725047 10.5791864,53.8702866 C10.4084214,54.1680684 10.1807348,54.3252311 9.9042582,54.3665897 C9.6277816,54.4079483 9.27812002,54.3500463 8.85527346,54.2011553 L8.76582515,54.4741221 C9.14801339,54.6643716 9.45701664,54.9621535 9.70909825,55.3509243 C9.96117985,55.7396951 10.1238131,56.2029114 10.2132615,56.7405731 C10.3108414,57.2699631 10.3189731,57.8655269 10.2376564,58.5189927 Z M8.71703517,57.0052681 C8.75769349,56.6413125 8.72516683,56.2773568 8.61945519,55.9216729 C8.51374355,55.565989 8.35111026,55.2599354 8.13155532,55.0200555 C7.91200037,54.7801757 7.65991877,54.6395564 7.37531051,54.6064696 L7.22080888,54.5899261 L7.20454555,55.9134012 C7.20454555,56.360074 7.22080888,56.7240297 7.26959887,57.0135398 C7.31838886,57.30305 7.3997055,57.5263864 7.50541714,57.6752774 C7.61926045,57.8241683 7.75749874,57.9151572 7.93639537,57.9399724 C8.17221364,57.9647876 8.34297859,57.9068855 8.47308523,57.7497229 C8.5950602,57.5925602 8.67637684,57.3444086 8.71703517,57.0052681 Z" id="Shape" fill="#000000" fill-rule="nonzero"></path>
                            <path d="M12.44338,46.4584903 C12.1257785,47.3944167 11.800237,48.1248958 11.4588154,48.665146 C11.1253338,49.2053962 10.7521521,49.5782449 10.3472102,49.7836921 C9.9422683,49.9891394 9.48174613,50.0500126 8.96564371,49.9587028 L9.60084669,47.2802793 C9.84698785,47.2954977 10.0534288,47.265061 10.2281096,47.1965786 C10.4027905,47.1280962 10.5536512,46.9987405 10.6886318,46.8161207 C10.8236124,46.633501 10.950653,46.3671804 11.0618136,46.0247684 C11.1729741,45.7051837 11.2444344,45.4312541 11.2761946,45.2105885 C11.3079547,44.9899229 11.3000147,44.8149123 11.2523744,44.6931658 C11.2047342,44.5714193 11.1173938,44.4877186 10.9903532,44.4420636 C10.8553726,44.4040178 10.728332,44.4268453 10.6092314,44.5257643 C10.4901309,44.6246834 10.3710303,44.7692574 10.2519297,44.9670955 C10.1328292,45.1649336 9.95814837,45.4692999 9.73582733,45.8954127 L9.68024707,46.0019409 L9.10062435,47.0976596 C8.87036326,47.5313815 8.62422211,47.9042302 8.37014092,48.2238149 C8.11605972,48.5433995 7.80639827,48.7716742 7.46497667,48.9314665 C7.11561503,49.0836497 6.73449324,49.098868 6.3216113,48.9695123 C5.86108914,48.8249383 5.51966754,48.5662269 5.2973465,48.1933782 C5.07502545,47.8205295 4.979745,47.3259343 5.00356512,46.7019834 C5.03532527,46.0780325 5.20206605,45.332335 5.49584743,44.4496728 C5.78962881,43.589838 6.09929026,42.8974046 6.42483179,42.3723728 C6.75037331,41.8473409 7.10767499,41.466883 7.48879678,41.2462175 C7.86991857,41.0255519 8.28280051,40.9494603 8.73538263,41.0331611 L8.14781987,43.6507112 C7.94931894,43.6431021 7.77463812,43.688757 7.62377741,43.7724578 C7.47291671,43.8561585 7.32999604,43.9931233 7.21089548,44.1833523 C7.09179492,44.3735812 6.97269436,44.6094651 6.87741391,44.9062222 C6.78213346,45.2029794 6.71067313,45.4464724 6.67891298,45.6443105 C6.64715283,45.8421486 6.65509287,45.9867226 6.69479305,46.1008599 C6.73449324,46.2073881 6.81389361,46.2834797 6.93299417,46.3215255 C7.04415469,46.3595713 7.15531522,46.3367438 7.26647574,46.2530431 C7.37763626,46.1693423 7.49673682,46.0247684 7.62377741,45.8193211 C7.75081801,45.6138739 7.92549883,45.3095076 8.12399976,44.9214405 L8.69568244,43.8181127 C8.9418236,43.3463449 9.18796476,42.9354504 9.44998599,42.5930384 C9.70406718,42.2506263 10.0216687,41.9919149 10.3869104,41.8092951 C10.7521521,41.6266754 11.1729741,41.611457 11.6334962,41.756031 C12.1257785,41.9082142 12.4830802,42.1745347 12.7054013,42.5549926 C12.9356623,42.9354504 13.0309428,43.445264 12.9912426,44.0996515 C12.9436024,44.7236024 12.7609815,45.5149548 12.44338,46.4584903 Z" id="Path" fill="#000000" fill-rule="nonzero"></path>
                            <polygon id="Path" fill="#000000" fill-rule="nonzero" points="11.6514523 39 10 38.2089094 12.3485477 34 14 34.7910906"></polygon>
                            <path d="M19.1056401,36 L17.5344673,35.1263872 L18.12265,34.22873 C18.3079678,33.9482121 18.4449418,33.715783 18.5335721,33.5234279 C18.6222023,33.3310727 18.6705461,33.162762 18.6866607,33.0265105 C18.7027753,32.8902589 18.6866607,32.770037 18.6383169,32.6578298 L18.5013429,32.337238 L11,30.958693 L12.7564906,28.5702836 L16.1647269,29.419852 C16.5353626,29.5240444 16.8818263,29.6282367 17.2041182,29.7404439 C17.5183527,29.852651 17.8406446,29.9808878 18.1709937,30.1331689 L18.3321397,29.9167694 C18.0904208,29.6602959 17.8728738,29.4038224 17.6714414,29.147349 C17.470009,28.8908755 17.2605192,28.594328 17.0268577,28.2577065 L15.1414503,25.3323058 L16.8415398,23 L19.645479,27.9050555 C20.3222919,29.0110974 20.7412713,29.9408138 20.9104745,30.7022195 C21.0716204,31.4556104 21.0152193,32.2250308 20.7412713,32.9944513 C20.4673232,33.7638718 19.919427,34.7657213 19.1056401,36 Z" id="Path" fill="#000000" fill-rule="nonzero"></path>
                            <path d="M29.6691494,21.2386663 C28.9031226,21.8787359 28.2432777,22.3370574 27.6820303,22.6215327 C27.1207829,22.9060081 26.6202109,23.0324416 26.1803143,22.9929312 C25.7404177,22.9534207 25.3460277,22.7558683 24.9819753,22.392372 L26.9539256,20.4089464 C27.1435362,20.5511841 27.3255624,20.6460092 27.5,20.6776176 C27.6744459,20.709226 27.8640565,20.6855197 28.0764204,20.5985966 C28.2887842,20.5116736 28.5314858,20.3536317 28.8045251,20.1165689 C29.0699799,19.8953103 29.267175,19.6977579 29.4188634,19.5239118 C29.5629675,19.3500658 29.6539806,19.1920239 29.6843183,19.0576883 C29.714656,18.9233527 29.6919027,18.8048213 29.608474,18.702094 C29.5250454,18.5914647 29.411279,18.5440522 29.2595905,18.5677584 C29.1079021,18.5835626 28.9334603,18.6467794 28.7286808,18.7495066 C28.5239014,18.8522338 28.2205244,19.0260799 27.8109655,19.2789469 L27.7047836,19.3421637 L26.6429642,19.9743312 C26.2258209,20.2271982 25.8238464,20.4168485 25.4446252,20.5511841 C25.065404,20.6855197 24.6937672,20.7250301 24.3372993,20.6697155 C23.9732469,20.6144008 23.6622855,20.4168485 23.4044151,20.0770584 C23.116207,19.70566 22.9796873,19.2947511 23.0024406,18.8443317 C23.0251939,18.4018145 23.2148045,17.9118846 23.5788569,17.3903464 C23.9429092,16.8688082 24.4814033,16.2998574 25.2019236,15.6992983 C25.8996906,15.1145433 26.5291978,14.6799281 27.0752764,14.4033548 C27.6289393,14.1188794 28.1143425,13.9924459 28.5390702,14.000348 C28.963798,14.0161522 29.3354348,14.1820962 29.6539806,14.4902779 L27.7578746,16.4420951 C27.5986016,16.3314658 27.4393287,16.268249 27.264887,16.2603469 C27.0904452,16.2524449 26.9084191,16.2919553 26.711224,16.3867805 C26.514029,16.4816056 26.2940807,16.6317454 26.0513791,16.8292977 C25.8086776,17.0347522 25.6266514,17.2085982 25.4901317,17.3666401 C25.3536121,17.524682 25.2853523,17.6511155 25.2550146,17.7696469 C25.2322613,17.8881783 25.2550146,17.9909056 25.3232744,18.0857307 C25.3915342,18.1805558 25.4977162,18.2200663 25.6266514,18.2042621 C25.7555866,18.1884579 25.9376128,18.1331433 26.1499766,18.0225139 C26.3699249,17.9118846 26.6657175,17.7459407 27.0449387,17.5167799 L28.1067581,16.8688082 C28.5618235,16.5922349 28.9865513,16.3709763 29.3733569,16.2129344 C29.767747,16.0548925 30.162137,15.9995778 30.5489426,16.0390883 C30.9433327,16.0785988 31.2846318,16.2919553 31.5728399,16.6712558 C31.8838013,17.0663606 32.0203209,17.5009757 31.9975676,17.9513951 C31.9748144,18.4097166 31.7700349,18.9075485 31.3832293,19.4448909 C30.9964237,19.9822333 30.4427607,20.5985966 29.6691494,21.2386663 Z" id="Path" fill="#000000" fill-rule="nonzero"></path>
                            <path d="M38.6911586,15.1164095 C37.705681,15.5873742 36.8269635,15.8760299 36.0385814,15.9671844 C35.2501993,16.0583389 34.5685773,15.9595882 33.985503,15.6709324 C33.4024288,15.3822766 32.9261146,14.9037157 32.5483482,14.2352497 L32.4498004,14.0529408 C32.0802463,13.3996672 31.940637,12.7691822 32.0227601,12.169082 C32.1048832,11.5689818 32.4087388,10.9992665 32.9425392,10.459936 C33.4763396,9.92060542 34.2318724,9.4192559 35.21735,8.94069501 C36.1371291,8.50011513 36.9583605,8.21145935 37.6728318,8.08232387 C38.3955153,7.95318839 39.0196512,7.975977 39.5452392,8.15068971 C40.0708273,8.32540242 40.5060799,8.66723163 40.8427848,9.15338874 L38.3298168,10.6270525 C38.1573583,10.3915701 37.9602627,10.2244536 37.730318,10.1257029 C37.5003732,10.0269523 37.2457915,9.99656746 36.9501482,10.0269523 C36.6627172,10.0649333 36.342437,10.163684 35.9893075,10.3308005 C35.4144456,10.61186 35.0531038,10.9536893 34.9052821,11.3714805 C34.7574605,11.7892718 34.8395836,12.2602365 35.1352269,12.7919708 L35.2009254,12.9059139 C35.4062332,13.2705317 35.6443903,13.5363989 35.9153967,13.7187078 C36.186403,13.9010167 36.4902586,13.9921712 36.8187512,13.9921712 C37.1472437,13.9921712 37.5085855,13.9010167 37.8945642,13.7111116 C38.2641183,13.5363989 38.5515493,13.3464938 38.7568571,13.1565886 C38.962165,12.9666835 39.093562,12.761586 39.1428359,12.5488923 C39.1921097,12.3361985 39.1592605,12.1083124 39.0525004,11.87283 L41.7954131,10.794169 C42.0253579,11.3183071 42.0582071,11.8196566 41.9103855,12.3134099 C41.7543516,12.8071632 41.4176467,13.2857241 40.875634,13.7490926 C40.3336213,14.2124611 39.6109377,14.6758296 38.6911586,15.1164095 Z" id="Path" fill="#000000" fill-rule="nonzero"></path>
                            <path d="M44.9288344,13 L43,6.10055351 L45.5177914,5.20387454 C45.598773,5.46125461 45.6503067,5.72693727 45.6650307,5.99261993 C45.6797546,6.25830258 45.6650307,6.59870849 45.6134969,7.01383764 L45.8858896,7.06365314 C45.996319,6.48247232 46.1435583,6.00922509 46.3128834,5.65221402 C46.4895706,5.28690037 46.7177914,4.9797048 47.0122699,4.73062731 C47.3067485,4.48154982 47.6969325,4.23247232 48.190184,4 L49,6.13376384 L47.8662577,6.63191882 C47.4245399,6.83118081 47.1006135,7.04704797 46.8944785,7.29612546 C46.6883436,7.54520295 46.5779141,7.86070111 46.5631902,8.23431734 C46.5484663,8.60793358 46.6220859,9.08948339 46.7840491,9.67066421 L47.4613497,12.103321 L44.9288344,13 Z" id="Path" fill="#000000" fill-rule="nonzero"></path>
                            <path d="M56.5028186,9.90402731 C55.4317741,10.0391 54.5160719,10.0315959 53.7475362,9.88151519 C52.9790005,9.73143444 52.3658071,9.43877697 51.9161319,8.99603875 C51.4664567,8.55330053 51.1802998,7.96048156 51.0740129,7.21758183 L51.0413093,6.9924607 C50.9350224,6.24956097 51.0331334,5.61171777 51.343818,5.0789311 C51.6545027,4.54614442 52.1614092,4.11091024 52.8563618,3.78073258 C53.5513143,3.45055493 54.4343128,3.21792976 55.5053573,3.09036112 C56.5682259,2.96279248 57.4839281,2.97029652 58.2524638,3.11287323 C59.0209995,3.26295399 59.6341929,3.55561145 60.0838681,3.99834968 C60.5335433,4.4410879 60.8197002,5.02640283 60.9259871,5.76930256 L60.9586907,5.99442369 C61.0649776,6.73732342 60.9668666,7.38267066 60.656182,7.91545733 C60.3454973,8.448244 59.8467667,8.88347819 59.1436382,9.21365584 C58.4405098,9.5438335 57.5738631,9.76895463 56.5028186,9.90402731 Z M56.282069,8.35819555 C56.9034383,8.28315518 57.3694653,8.07304212 57.6637981,7.73536043 C57.958131,7.39767873 58.0644178,6.92492436 57.9744828,6.31709731 L57.958131,6.18202463 C57.9008996,5.7768066 57.770085,5.44662894 57.5738631,5.1989957 C57.3776412,4.95136246 57.1241879,4.77876959 56.8216792,4.68872114 C56.5109945,4.59867269 56.1512544,4.57616058 55.7424588,4.62868884 C55.1129135,4.70372922 54.6550625,4.91384227 54.3525537,5.25152396 C54.0582209,5.58920566 53.951934,6.06196003 54.041869,6.66978708 L54.0582209,6.80485976 C54.1154523,7.21007779 54.2462668,7.54025545 54.4424887,7.78788869 C54.6387106,8.03552193 54.8921639,8.20061076 55.2028486,8.29816325 C55.5135332,8.39571574 55.8650974,8.41072382 56.282069,8.35819555 Z" id="Shape" fill="#000000" fill-rule="nonzero"></path>
                            <polygon id="Path" fill="#000000" fill-rule="nonzero" points="63 8.95376712 63.15 0 66 0.0462328767 65.85 9"></polygon>
                            <polygon id="Path" fill="#000000" fill-rule="nonzero" points="68 9.71356784 69.0207469 1 72 1.28643216 70.9792531 10"></polygon>
                            <path d="M81.8997767,12.4209253 C80.7684024,12.0069818 79.8772514,11.4993152 79.241822,10.8901153 C78.5986434,10.2809154 78.2111865,9.58580263 78.0639528,8.78915658 C77.9167192,7.99251052 78.0252071,7.10995166 78.3739184,6.13366973 L78.3816675,6.11023897 C78.7303788,5.13395704 79.2185746,4.38417252 79.8307566,3.86869566 C80.4429386,3.3532188 81.1946051,3.06423935 82.0702578,3.00956756 C82.9459105,2.95489577 83.9455495,3.13453165 85.0769238,3.54847519 C86.0998102,3.92336745 86.9212189,4.36074175 87.54115,4.86840835 C88.1688303,5.37607496 88.5872838,5.93841335 88.8120089,6.54761327 C89.0367339,7.15681319 89.0599813,7.79725414 88.8817511,8.47674636 L86.0300679,7.80506439 C86.1308067,7.44579264 86.146305,7.1021414 86.0688136,6.77411068 C85.9913222,6.4538902 85.8208411,6.1571005 85.5496213,5.89936207 C85.2784014,5.63381339 84.9141919,5.42293649 84.4569927,5.25111087 C83.6588313,4.96213142 82.9924054,4.96994167 82.4499656,5.26673138 C81.9075259,5.56352109 81.4735741,6.16491075 81.1481102,7.06309013 L81.1093645,7.1724337 C80.9001378,7.76601312 80.8071481,8.28930023 80.8381447,8.7501053 C80.8691412,9.21091037 81.024124,9.60142314 81.303093,9.92945387 C81.582062,10.2574846 81.9850173,10.515223 82.5197079,10.7104794 C83.193883,10.9604076 83.7828175,10.9994589 84.2632642,10.8276332 C84.7514599,10.6558076 85.1156695,10.3199666 85.3481437,9.80448978 L87.9673527,11.155664 C87.6573871,11.7726741 87.2234353,12.2412895 86.6654973,12.5536997 C86.1075593,12.8661099 85.425635,13.0145048 84.6197246,12.9988842 C83.8138141,12.9832637 82.9071648,12.7880074 81.8997767,12.4209253 Z" id="Path" fill="#000000" fill-rule="nonzero"></path>
                            <path d="M90.5387791,16.3721812 C90.065183,16.0758693 89.6895723,15.7555321 89.4282779,15.4191781 C89.1669835,15.082824 89.0281708,14.7384615 89.0036745,14.3860906 C88.9791781,14.0337197 89.0771635,13.6893572 89.2976307,13.3530032 C89.5670905,12.9365648 89.9182049,12.6562698 90.3509737,12.5281349 C90.7837426,12.4 91.2900005,12.3919916 91.8697474,12.5201264 C92.4494944,12.6402529 93.1108958,12.8805058 93.8621172,13.2408851 L96.0259614,14.2659642 L96.181105,14.0337197 C96.2790904,13.889568 96.3199176,13.7293994 96.3117522,13.5612223 C96.3035867,13.3930453 96.2382631,13.2168599 96.1076159,13.0406744 C95.9769687,12.8644889 95.7809979,12.6963119 95.527869,12.5361433 C95.2420782,12.3599579 94.9889493,12.2398314 94.7603167,12.1837724 C94.5316841,12.1277134 94.3193824,12.119705 94.1479079,12.1597471 C93.968268,12.2077977 93.8131245,12.2958904 93.6824773,12.4240253 L91.2328423,10.7903056 C91.5431294,10.3898841 91.9432365,10.1416228 92.4168326,10.0455216 C92.8904286,9.94942044 93.4620101,10.0054795 94.1070807,10.2136986 C94.7521512,10.4219178 95.4870417,10.7742887 96.3117522,11.2868282 C97.1691244,11.8153846 97.814195,12.3279241 98.2551293,12.8164384 C98.6960636,13.3049526 98.9410271,13.7854584 98.9900198,14.2579557 C99.0390125,14.7304531 98.9083653,15.2189673 98.5817473,15.7234984 L97.0874699,18.0219178 C97.0139809,18.1420443 96.9649882,18.2381454 96.9486573,18.3182297 C96.9323264,18.3903056 96.9486573,18.4623815 96.99765,18.5184405 C97.0384772,18.5744995 97.1201317,18.6385669 97.2262826,18.7106428 L97.5284042,18.9028451 L96.5158884,20 C96.3607449,19.9359326 96.2137668,19.8638567 96.0586232,19.7917808 C95.9034797,19.7116965 95.7483361,19.6316122 95.601358,19.5355111 C95.0706038,19.2071654 94.7194894,18.9028451 94.5316841,18.6305585 C94.3438787,18.3502634 94.294886,18.0859852 94.384706,17.8217071 C94.4663605,17.5654373 94.6704967,17.2771338 94.9889493,16.9567966 L94.784813,16.7645943 C94.4500296,17.0208641 94.0499225,17.1810327 93.6008228,17.2370917 C93.151723,17.2931507 92.661796,17.2531085 92.1392073,17.1089568 C91.6166185,16.9567966 91.0776988,16.7165437 90.5387791,16.3721812 Z M92.5393143,15.6514226 C92.8414359,15.8436249 93.1843848,15.9637513 93.5436646,16.0198103 C93.9029444,16.0758693 94.2458933,16.051844 94.5561804,15.9557429 C94.8664675,15.8596417 95.1032656,15.6914647 95.2584091,15.4512118 L95.3400636,15.3230769 L94.1642388,14.7544784 C93.7641318,14.5622761 93.4293483,14.4341412 93.151723,14.3540569 C92.8740977,14.2739726 92.6454652,14.2579557 92.4576598,14.2899895 C92.2780199,14.3220232 92.1310418,14.4181243 92.0412219,14.5702845 C91.9187401,14.7624868 91.8942438,14.9466807 91.9840637,15.1228662 C92.0657182,15.2990516 92.2535236,15.4752371 92.5393143,15.6514226 Z" id="Shape" fill="#000000" fill-rule="nonzero"></path>
                            <path d="M98,21.0844595 L102.542636,16 L104.604651,17.8997748 C104.434109,18.0968468 104.248062,18.2702703 104.046512,18.4121622 C103.844961,18.5540541 103.55814,18.7038288 103.20155,18.8536036 L103.302326,19.1295045 C103.829457,18.9560811 104.286822,18.8614865 104.666667,18.8536036 C105.054264,18.8378378 105.426357,18.9087838 105.782946,19.0585586 C106.139535,19.2083333 106.550388,19.4527027 107,19.7995495 L105.713178,21.5731982 L104.713178,20.7612613 C104.325581,20.4459459 103.968992,20.2567568 103.658915,20.1779279 C103.348837,20.106982 103.03876,20.1542793 102.72093,20.3198198 C102.410853,20.4853604 102.062016,20.7849099 101.682171,21.2105856 L100.085271,23 L98,21.0844595 Z" id="Path" fill="#000000" fill-rule="nonzero"></path>
                            <path d="M105.580517,29.6629094 C104.922964,28.8666525 104.46836,28.1239898 104.216704,27.427265 C103.965048,26.7305402 103.932576,26.0874096 104.119289,25.4902169 C104.306001,24.8930242 104.720016,24.3647384 105.361333,23.8900468 L105.556164,23.7445768 C106.197481,23.2775415 106.838798,23.024883 107.496351,23.0019141 C108.153904,22.9789451 108.803339,23.1626967 109.460891,23.5531689 C110.118444,23.9512973 110.775997,24.5408337 111.43355,25.3370906 C112.091103,26.1256912 112.53759,26.8760102 112.789246,27.572735 C113.032784,28.2694598 113.065256,28.9125904 112.886661,29.5097831 C112.699949,30.0993194 112.294052,30.6352616 111.652735,31.1022969 L111.457904,31.2477669 C110.816587,31.7224585 110.167152,31.9674607 109.509599,31.9980859 C108.852046,32.0210549 108.194493,31.8373033 107.545058,31.4468311 C106.895623,31.0487027 106.23807,30.4591663 105.580517,29.6629094 Z M106.911859,28.6829009 C107.293402,29.1499362 107.723653,29.410251 108.186375,29.4791578 C108.649098,29.5480647 109.144292,29.387282 109.66384,29.0044662 L109.777491,28.9202467 C110.126562,28.6599319 110.3701,28.3919609 110.499987,28.1010208 C110.629874,27.8177371 110.662346,27.5267971 110.597403,27.2282008 C110.532459,26.9296044 110.3701,26.6310081 110.110326,26.3247554 C109.720665,25.8577201 109.298533,25.589749 108.83581,25.5208422 C108.373088,25.4519353 107.877894,25.612718 107.358346,25.9955338 L107.244695,26.0797533 C106.895623,26.3400681 106.652085,26.6080391 106.522198,26.8913228 C106.392311,27.1746066 106.359839,27.4655466 106.424783,27.7717992 C106.489726,28.0703956 106.652085,28.3766482 106.911859,28.6829009 Z" id="Shape" fill="#000000" fill-rule="nonzero"></path>
                            <polygon id="Path" fill="#000000" fill-rule="nonzero" points="110 35.5191874 117.652649 31 119 33.4808126 111.347351 38"></polygon>
                            <path d="M113.599744,44.2850604 C113.216574,43.2652731 113.017006,42.366889 113.001041,41.5818146 C112.985075,40.7967403 113.152712,40.1249756 113.511934,39.5827077 C113.871156,39.0404398 114.41398,38.6195752 115.148389,38.336301 L115.339974,38.263459 C116.058418,37.9882783 116.728966,37.9235299 117.3596,38.0934945 C117.990234,38.263459 118.557006,38.6357623 119.075882,39.2346851 C119.586776,39.8336078 120.04179,40.6348692 120.42496,41.6546566 C120.792165,42.6339762 120.98375,43.5080796 120.999715,44.2769669 C121.007698,45.0458541 120.848044,45.6933382 120.504787,46.2194189 C120.169513,46.7454997 119.65862,47.1420837 118.98009,47.4091708 C118.844384,47.4577321 118.700695,47.5062934 118.549023,47.5629483 C118.389369,47.6115096 118.221732,47.6600709 118.046113,47.7086322 L115.627352,41.3066339 L117.080205,40.7400854 L118.469196,44.4064637 L118.493144,44.3983701 C118.724643,44.3093411 118.900263,44.1636572 119.020003,43.9532249 C119.139744,43.7508861 119.195623,43.499986 119.18764,43.2005247 C119.179657,42.9010633 119.115796,42.5773213 118.972107,42.2212051 C118.820436,41.8246211 118.628851,41.5170662 118.397352,41.2904468 C118.157871,41.0638274 117.886459,40.9262371 117.56715,40.8776758 C117.247842,40.8291145 116.904585,40.8857693 116.521415,41.0314532 L116.066401,41.2095113 C115.675248,41.3632888 115.387871,41.557534 115.188303,41.808434 C114.988735,42.0593341 114.88496,42.3426084 114.861012,42.6663504 C114.845046,42.9900924 114.908908,43.3543021 115.052597,43.7427926 C115.164355,44.0341604 115.284095,44.2769669 115.427784,44.4712121 C115.56349,44.6654573 115.715162,44.8111412 115.874816,44.9163573 C116.03447,45.0215735 116.21009,45.0863219 116.401675,45.1186961 L117.207928,48 C116.449571,47.9676258 115.779023,47.6438838 115.172337,47.0206804 C114.581617,46.4055706 114.054758,45.499093 113.599744,44.2850604 Z" id="Path" fill="#000000" fill-rule="nonzero"></path>
                            <polygon id="Path" fill="#000000" fill-rule="nonzero" points="118.355932 50 119 52.5263158 116.644068 53 116 50.4736842"></polygon>
                            <path d="M117,56.2061069 L125.983871,52 L126.282258,54.9236641 L122.048387,56.6641221 C121.653226,56.8244275 121.201613,56.9923664 120.685484,57.1603053 C120.169355,57.3282443 119.653226,57.480916 119.137097,57.610687 L119.16129,57.8625954 C119.774194,57.9160305 120.346774,57.9770992 120.895161,58.0534351 C121.443548,58.129771 121.879032,58.2061069 122.201613,58.2748092 L126.717742,59.221374 L127,62 L117.33871,59.5496183 L117,56.2061069 Z" id="Path" fill="#000000" fill-rule="nonzero"></path>
                            <path d="M116.588258,65.5345068 C116.63797,64.9665696 116.76225,64.4891731 116.952812,64.0940864 C117.143375,63.6989996 117.391935,63.4109155 117.706777,63.2298341 C118.02162,63.0487527 118.377889,62.9746739 118.80044,63.0075978 C119.31413,63.0569837 119.728397,63.2380651 120.043239,63.567304 C120.358081,63.896543 120.598356,64.3492465 120.755777,64.9254147 C120.904913,65.5015829 120.996052,66.2094466 121.012622,67.049006 L121.070619,69.4689122 L121.360606,69.4936052 C121.534598,69.5100671 121.70859,69.4771432 121.857725,69.3866025 C122.006861,69.2960618 122.139427,69.1561352 122.23885,68.9585919 C122.338274,68.7610485 122.412842,68.5058883 122.437698,68.2013423 C122.47084,67.8638724 122.462554,67.5840192 122.404557,67.345321 C122.354845,67.1066228 122.263706,66.9255413 122.139427,66.7856148 C122.015147,66.6456882 121.866011,66.5469166 121.675448,66.4975307 L122.048288,63.5426111 C122.561978,63.6331518 122.967959,63.8718501 123.282801,64.2587058 C123.589359,64.6455616 123.804777,65.1723439 123.912486,65.8555148 C124.020195,66.5304546 124.028481,67.361783 123.937342,68.3330379 C123.846204,69.3454476 123.672212,70.168545 123.431937,70.794099 C123.191663,71.419653 122.86025,71.8641256 122.445984,72.1275168 C122.031717,72.3909079 121.518027,72.5061416 120.904913,72.4485248 L118.087902,72.1933646 C117.938766,72.1769026 117.831057,72.1851336 117.756489,72.2098265 C117.681921,72.2345194 117.623924,72.2756743 117.590783,72.3497531 C117.557641,72.4238318 117.532785,72.5143725 117.5245,72.6378372 L117.491359,73 L116.016571,72.6049133 C116.008285,72.4402938 116,72.2674433 116,72.0945929 C116,71.9217424 116.008285,71.740661 116.024856,71.5595796 C116.082853,70.9340256 116.198848,70.473091 116.364554,70.176776 C116.538546,69.8804609 116.76225,69.7076105 117.035666,69.6664556 C117.317367,69.6170698 117.673636,69.6664556 118.112758,69.8063822 L118.195611,69.53476 C117.806201,69.3536786 117.474788,69.0738255 117.209658,68.6952007 C116.944527,68.3165759 116.76225,67.8638724 116.654541,67.3288591 C116.546832,66.7938458 116.521976,66.1847537 116.588258,65.5345068 Z M118.179041,66.9913891 C118.145899,67.353552 118.187326,67.7157148 118.303321,68.0696467 C118.419315,68.4235786 118.593307,68.7198936 118.825296,68.9503609 C119.057285,69.1808282 119.322416,69.3125237 119.612402,69.3454476 L119.769823,69.3619096 L119.744967,68.0449538 C119.736682,67.6004812 119.703541,67.2383183 119.645543,66.9502343 C119.587546,66.6621502 119.504693,66.4481449 119.388698,66.2999873 C119.272704,66.1518298 119.123568,66.0695201 118.941291,66.0530581 C118.701016,66.0283652 118.527024,66.102444 118.402745,66.2588325 C118.28675,66.40699 118.203897,66.6539192 118.179041,66.9913891 Z" id="Shape" fill="#000000" fill-rule="nonzero"></path>
                            <path d="M114.474746,78.6361925 C114.771525,77.6907949 115.076325,76.9512499 115.397168,76.3946852 C115.71801,75.8457446 116.086978,75.4645359 116.488031,75.2434348 C116.889084,75.0223337 117.354305,74.9537162 117.883695,75.0299579 L117.322221,77.7289157 C117.073568,77.7212916 116.865021,77.7517883 116.696579,77.82803 C116.528136,77.9042717 116.375736,78.0338827 116.247399,78.2244871 C116.119063,78.4150914 115.998747,78.6819376 115.894473,79.0250254 C115.790199,79.3452407 115.734052,79.619711 115.701968,79.8408121 C115.677904,80.0619132 115.693947,80.2372692 115.742073,80.359256 C115.790199,80.4812428 115.886452,80.5651087 116.006768,80.6032296 C116.143126,80.6413504 116.271463,80.6108537 116.391778,80.5117395 C116.512094,80.4126252 116.624389,80.2601417 116.744705,80.0619132 C116.865021,79.8636846 117.025442,79.5510935 117.233989,79.1241397 L117.290137,79.0174012 L117.843589,77.9042717 C118.060158,77.4620696 118.30079,77.0808609 118.549442,76.7606455 C118.798095,76.4404302 119.094874,76.1964566 119.4478,76.0287248 C119.792706,75.8609929 120.177717,75.8381204 120.602832,75.9601072 C121.068054,76.0897182 121.42098,76.3413159 121.661612,76.7072763 C121.902243,77.0732367 122.014538,77.5688081 121.998496,78.1939904 C121.990475,78.8191727 121.846096,79.573966 121.565359,80.4659944 C121.292643,81.3351503 121.003885,82.0365744 120.691064,82.5702666 C120.378243,83.1039588 120.025316,83.4927918 119.648327,83.7291412 C119.271337,83.9578664 118.854242,84.0417323 118.397042,83.9807389 L118.91039,81.3503987 C119.110916,81.3503987 119.287379,81.3046536 119.439779,81.2131635 C119.592179,81.1216734 119.728537,80.9844383 119.848853,80.7938339 C119.969169,80.6032296 120.073443,80.359256 120.169695,80.0619132 C120.265948,79.7645704 120.322096,79.5129726 120.346159,79.3223682 C120.370222,79.1241397 120.362201,78.9716562 120.314074,78.8649177 C120.265948,78.7581793 120.185738,78.6895617 120.065422,78.6514409 C119.953127,78.6209442 119.840832,78.6438167 119.728537,78.7353068 C119.624264,78.8191727 119.503948,78.9716562 119.375611,79.1775089 C119.247274,79.3909858 119.086853,79.6959528 118.894348,80.0924099 L118.348916,81.2131635 C118.116305,81.6934865 117.875674,82.105192 117.627021,82.455904 C117.378368,82.806616 117.065547,83.0734621 116.7046,83.2716907 C116.335631,83.4622951 115.918536,83.4927918 115.445294,83.3631808 C114.947988,83.2259456 114.57902,82.9667237 114.338388,82.5931391 C114.097757,82.2195546 113.985462,81.7087349 114.001504,81.06068 C114.017546,80.4126252 114.177967,79.5892143 114.474746,78.6361925 Z" id="Path" fill="#000000" fill-rule="nonzero"></path>
                            <polygon id="Path" fill="#000000" fill-rule="nonzero" points="115.277186 86 117 86.7427259 114.722814 91 113 90.2572741"></polygon>
                            <path d="M107.774002,89 L109.366131,89.8371517 L108.803257,90.7547988 C108.626354,91.0365325 108.497697,91.2780186 108.417286,91.479257 C108.336876,91.6724458 108.288629,91.8414861 108.280588,91.9783282 C108.272547,92.1151703 108.288629,92.2359133 108.336876,92.3486068 L108.481615,92.6705882 L116,93.8458204 L114.31942,96.2928793 L110.893931,95.5362229 C110.516001,95.447678 110.170236,95.3510836 109.848594,95.2464396 C109.526952,95.1417957 109.205309,95.0210526 108.875626,94.876161 L108.722846,95.0934985 C108.972119,95.3430341 109.197268,95.6006192 109.406336,95.8501548 C109.615403,96.0996904 109.832512,96.3975232 110.073743,96.7275542 L112.043801,99.6092879 L110.403426,102 L107.460401,97.1541796 C106.752788,96.0594427 106.302489,95.1417957 106.117545,94.3851393 C105.9326,93.628483 105.964765,92.8637771 106.222078,92.0829721 C106.479392,91.2860681 106.99402,90.2637771 107.774002,89 Z" id="Path" fill="#000000" fill-rule="nonzero"></path>
                            <path d="M98.2520273,103.847352 C98.9950312,103.196398 99.647055,102.717986 100.200517,102.412116 C100.753979,102.114089 101.25437,101.972918 101.686525,102.00429 C102.126262,102.027818 102.528091,102.216046 102.907174,102.568973 L100.996593,104.592419 C100.807051,104.451248 100.625091,104.37282 100.443131,104.341449 C100.268752,104.310078 100.07921,104.341449 99.8745052,104.435563 C99.6698001,104.529677 99.4271865,104.694376 99.1542463,104.937503 C98.8964695,105.164945 98.699346,105.361015 98.5628759,105.5414 C98.4264058,105.721785 98.3430074,105.878641 98.3126807,106.011969 C98.282354,106.145297 98.3126807,106.262939 98.3960791,106.364896 C98.4794775,106.466852 98.6007843,106.513909 98.7524177,106.490381 C98.9040512,106.466852 99.0784296,106.40411 99.2755531,106.29431 C99.4726766,106.184511 99.7759435,106.004126 100.177772,105.745313 L100.283916,105.682571 L101.330186,105.023774 C101.739597,104.764961 102.133844,104.561048 102.512927,104.419877 C102.884429,104.278706 103.255931,104.223807 103.619851,104.270864 C103.983772,104.317921 104.302202,104.498305 104.56756,104.827704 C104.863246,105.188473 105.007297,105.5963 104.999716,106.035497 C104.992134,106.474695 104.810174,106.968792 104.461417,107.494261 C104.11266,108.027573 103.589525,108.600098 102.884429,109.219681 C102.202079,109.823578 101.587963,110.270618 101.042083,110.560802 C100.503784,110.858829 100.018557,111 99.5864017,111 C99.161828,111 98.7827444,110.843144 98.4643142,110.545117 L100.306661,108.553041 C100.465876,108.654998 100.632672,108.709898 100.799469,108.71774 C100.973848,108.71774 101.155808,108.670684 101.352931,108.57657 C101.550055,108.474613 101.762342,108.3256 102.004955,108.113844 C102.239987,107.90993 102.421947,107.721703 102.550836,107.564846 C102.679724,107.40799 102.747959,107.274662 102.770704,107.15702 C102.793449,107.039378 102.763122,106.937421 102.687306,106.843307 C102.611489,106.757036 102.512927,106.717822 102.376457,106.733508 C102.247569,106.749194 102.07319,106.811936 101.853322,106.929578 C101.641035,107.047221 101.34535,107.219763 100.973848,107.46289 L99.9351586,108.137372 C99.4878399,108.427556 99.070848,108.654998 98.6841827,108.819697 C98.2975174,108.984396 97.9032704,109.054982 97.5090235,109.02361 C97.1147765,108.992239 96.7660196,108.796169 96.4627527,108.427556 C96.1443224,108.043258 95.992689,107.619746 96.0002707,107.172706 C96.0078523,106.717822 96.2049758,106.223725 96.5688961,105.674728 C96.940398,105.110045 97.5014418,104.506148 98.2520273,103.847352 Z" id="Path" fill="#000000" fill-rule="nonzero"></path>
                            <path d="M89.204014,109.958036 C90.1756206,109.462168 91.0566538,109.161642 91.8388795,109.048945 C92.6211052,108.936248 93.3127574,109.018892 93.9056021,109.289366 C94.4984469,109.559839 94.9924841,110.018141 95.387714,110.671785 L95.4947554,110.844587 C95.8817513,111.483204 96.0464304,112.099282 95.9887927,112.700334 C95.931155,113.301386 95.6347326,113.864872 95.1159935,114.413331 C94.5972543,114.961791 93.8561984,115.480198 92.8845917,115.976066 C91.9788567,116.434367 91.1636952,116.742406 90.4473411,116.892669 C89.7309871,117.042932 89.1052065,117.035419 88.5699995,116.87013 C88.0347924,116.704841 87.5901588,116.389289 87.2360988,115.908447 L89.7062852,114.383279 C89.8791983,114.608673 90.0850471,114.773962 90.3238318,114.86412 C90.5626165,114.954278 90.8178691,114.976817 91.1060575,114.939251 C91.3942459,114.901686 91.7071362,114.788989 92.0529623,114.616186 C92.6211052,114.330687 92.9751652,113.977569 93.1069085,113.556833 C93.2386518,113.14361 93.1480783,112.677795 92.835188,112.159387 L92.7693164,112.054203 C92.5552335,111.701086 92.3082149,111.438125 92.0282604,111.265323 C91.748306,111.092521 91.4436497,111.009876 91.1142915,111.017389 C90.7849333,111.024902 90.4226393,111.130086 90.0438774,111.325428 C89.6815833,111.513257 89.4016289,111.701086 89.19578,111.896427 C88.9981651,112.091769 88.8746558,112.294624 88.833486,112.512505 C88.7923162,112.730387 88.833486,112.948268 88.9487614,113.173662 L86.2315563,114.308147 C85.9927716,113.797253 85.9351339,113.301386 86.0751112,112.813031 C86.2150884,112.324677 86.5444466,111.843835 87.0631857,111.370507 C87.5819249,110.897179 88.298279,110.423851 89.204014,109.958036 Z" id="Path" fill="#000000" fill-rule="nonzero"></path>
                            <path d="M83.8970588,113 L86,119.758212 L83.5073529,120.72719 C83.4191176,120.472628 83.3676471,120.218066 83.3382353,119.94708 C83.3161765,119.684307 83.3235294,119.347628 83.3676471,118.937044 L83.0955882,118.895985 C83,119.470803 82.8676471,119.938869 82.7058824,120.308394 C82.5441176,120.67792 82.3161765,120.981752 82.0294118,121.244526 C81.7426471,121.507299 81.3602941,121.75365 80.8676471,122 L80,119.914234 L81.125,119.388686 C81.5588235,119.183394 81.875,118.953467 82.0808824,118.698905 C82.2794118,118.444343 82.3823529,118.132299 82.3897059,117.762774 C82.3970588,117.393248 82.3088235,116.916971 82.1323529,116.350365 L81.3897059,113.968978 L83.8970588,113 Z" id="Path" fill="#000000" fill-rule="nonzero"></path>
                            <path d="M72.3913598,116.131199 C73.4536261,115.974481 74.3688093,115.959555 75.1450808,116.07896 C75.9213523,116.198364 76.5341983,116.48195 76.9999612,116.907328 C77.4657241,117.332707 77.7680614,117.922266 77.8988019,118.653618 L77.9396582,118.877502 C78.0703987,119.608854 77.9886859,120.250653 77.6945199,120.787973 C77.4003538,121.325293 76.9100771,121.77306 76.2236897,122.116348 C75.5373022,122.459636 74.6629754,122.71337 73.6007091,122.870089 C72.5466141,123.026807 71.6314309,123.041733 70.8551593,122.914865 C70.0870591,122.787998 69.4660419,122.511875 69.000279,122.086497 C68.5345161,121.661118 68.2321788,121.079022 68.1014383,120.347669 L68.0605819,120.123786 C67.9298415,119.384971 68.0115543,118.743172 68.297549,118.205852 C68.5917151,117.661069 69.0819918,117.220765 69.7683792,116.877477 C70.4547667,116.534189 71.3290935,116.287917 72.3913598,116.131199 Z M72.661012,117.661069 C72.0399948,117.750622 71.5905745,117.974506 71.2964084,118.317793 C71.0022424,118.661081 70.9205296,119.131236 71.0267562,119.735721 L71.05127,119.870051 C71.1248116,120.273042 71.2637233,120.593941 71.4680053,120.840213 C71.6722872,121.079022 71.9255969,121.243203 72.2361055,121.325293 C72.5466141,121.407384 72.9061504,121.42231 73.3147143,121.355145 C73.9357315,121.265591 74.3933232,121.041708 74.6793179,120.705883 C74.9653127,120.362595 75.0551968,119.89244 74.9489701,119.287955 L74.9244563,119.153625 C74.8509148,118.750635 74.712003,118.429735 74.5077211,118.190926 C74.3034391,117.952117 74.0501294,117.787936 73.7314496,117.705846 C73.4127697,117.623755 73.069576,117.593904 72.661012,117.661069 Z" id="Shape" fill="#000000" fill-rule="nonzero"></path>
                            <polygon id="Path" fill="#000000" fill-rule="nonzero" points="65.85 117 66 125.953767 63.15 126 63 117.046233"></polygon>
                            <polygon id="Path" fill="#000000" fill-rule="nonzero" points="61 117.2123 60.2 126 57 125.7877 57.8 117"></polygon>
                            <path d="M45.9626686,114.496812 C47.1109961,114.882422 48.0110366,115.370338 48.670549,115.960559 C49.3300615,116.550779 49.7412869,117.243304 49.9119842,118.046004 C50.0826815,118.848704 50.0050918,119.73797 49.6792151,120.72954 L49.6714561,120.753149 C49.3455794,121.744719 48.8878002,122.508071 48.2826005,123.051074 C47.6851599,123.594077 46.9402988,123.900992 46.0712942,123.979688 C45.1945306,124.058384 44.1858645,123.908861 43.045296,123.523251 C42.013353,123.176988 41.1753842,122.759899 40.5391487,122.264113 C39.9029132,121.768328 39.4606519,121.217456 39.2201239,120.611496 C38.9795958,120.005536 38.933042,119.352359 39.0959803,118.667703 L41.9667992,119.257924 C41.8736915,119.627795 41.8736915,119.974058 41.9512812,120.296712 C42.0366299,120.619366 42.2150862,120.910541 42.4944091,121.170238 C42.773732,121.429935 43.1461626,121.634545 43.6117007,121.791937 C44.4186336,122.059504 45.085905,122.035895 45.6212739,121.713241 C46.1566428,121.390587 46.5756272,120.776758 46.870468,119.871753 L46.9092629,119.761579 C47.1032371,119.155619 47.1808268,118.628355 47.134273,118.164048 C47.0877192,117.699742 46.9247808,117.314131 46.637699,116.991477 C46.3506171,116.668823 45.9393917,116.424865 45.3962638,116.243864 C44.7134745,116.015646 44.1237927,115.992037 43.6427366,116.173038 C43.1616805,116.354039 42.8047679,116.708171 42.5797578,117.235435 L39.9184311,115.952689 C40.213272,115.32312 40.6322564,114.835205 41.1831432,114.504681 C41.7340301,114.174158 42.4090604,114.008896 43.2159933,114.001026 C44.0229261,113.985287 44.9384846,114.150549 45.9626686,114.496812 Z" id="Path" fill="#000000" fill-rule="nonzero"></path>
                            <path d="M38.400179,110.477241 C38.8822497,110.760932 39.2662721,111.077044 39.5359049,111.409368 C39.8055376,111.741692 39.9607807,112.090227 39.9934634,112.438761 C40.0261462,112.787296 39.9362686,113.143936 39.7238307,113.49247 C39.4623686,113.92206 39.1191997,114.213856 38.6943239,114.359754 C38.269448,114.505652 37.7628653,114.521863 37.1827463,114.416492 C36.6026274,114.311122 35.9326309,114.084169 35.1727568,113.74374 L32.9748414,112.771085 L32.827769,113.014249 C32.7378914,113.168252 32.6970379,113.322256 32.7133793,113.500576 C32.7297207,113.67079 32.8032569,113.849111 32.9339879,114.019325 C33.064719,114.18954 33.2689862,114.359754 33.5304483,114.513758 C33.8164224,114.683973 34.0778844,114.797449 34.3148344,114.846082 C34.5517844,114.90282 34.7560516,114.90282 34.9276361,114.854187 C35.0992206,114.805554 35.2544637,114.708289 35.3851947,114.570496 L37.8772549,116.15106 C37.5749394,116.564438 37.190917,116.823813 36.7088464,116.937289 C36.2349464,117.050766 35.6711688,117.010238 35.009343,116.815708 C34.3556879,116.629282 33.6121551,116.280747 32.7787448,115.79442 C31.9044811,115.283776 31.2426553,114.781238 30.7932674,114.303016 C30.3357088,113.824794 30.0824174,113.346572 30.0170519,112.86835 C29.9516864,112.390128 30.0742467,111.88759 30.3847329,111.376946 L31.8064328,109.002048 C31.879969,108.880466 31.9208225,108.775095 31.9371638,108.702146 C31.9453345,108.629197 31.9289932,108.556248 31.8881397,108.499509 C31.8472863,108.442771 31.7655794,108.377928 31.6511897,108.313084 L31.3407035,108.134764 L32.3211862,107 C32.4764293,107.056738 32.6316724,107.129687 32.7869155,107.202636 C32.9421586,107.275586 33.0974017,107.35664 33.2526448,107.453906 C33.7919103,107.770018 34.1514206,108.061815 34.3475172,108.3374 C34.5436137,108.612986 34.6008085,108.880466 34.5191017,109.147946 C34.4455654,109.415426 34.2494689,109.707222 33.9389827,110.039546 L34.1514206,110.225972 C34.4782482,109.958492 34.8704413,109.788277 35.3198292,109.715328 C35.7692171,109.642379 36.2594585,109.674801 36.7823826,109.804488 C37.3053067,109.934175 37.8445722,110.153022 38.400179,110.477241 Z M36.4228722,111.26347 C36.1123861,111.077044 35.7692171,110.963568 35.4015361,110.923041 C35.0338551,110.874408 34.6988568,110.90683 34.3883706,111.012201 C34.0778844,111.117572 33.8491051,111.295892 33.7020327,111.539056 L33.6203258,111.668743 L34.8132465,112.211808 C35.2136102,112.390128 35.5567792,112.519816 35.8345826,112.592765 C36.1123861,112.665714 36.349336,112.681925 36.5290912,112.641398 C36.7088464,112.60087 36.8477481,112.503605 36.9376257,112.349601 C37.060186,112.146965 37.0683567,111.960539 36.9784791,111.790325 C36.8886015,111.62011 36.7088464,111.433685 36.4228722,111.26347 Z" id="Shape" fill="#000000" fill-rule="nonzero"></path>
                            <path d="M30,105.822346 L25.5779896,111 L23.4566724,109.177654 C23.6204506,108.974302 23.7998267,108.802235 24.0025997,108.653631 C24.2053726,108.505028 24.4861352,108.356425 24.8448873,108.192179 L24.7357019,107.926257 C24.2131716,108.113966 23.7530329,108.223464 23.3708839,108.246927 C22.9887348,108.270391 22.6065858,108.215642 22.2400347,108.07486 C21.8734835,107.934078 21.4601386,107.707263 21,107.37095 L22.2478336,105.579888 L23.2772964,106.35419 C23.6828423,106.651397 24.0415945,106.839106 24.3535529,106.901676 C24.6655113,106.964246 24.9774697,106.909497 25.2894281,106.73743 C25.6013865,106.565363 25.9367418,106.260335 26.3110919,105.822346 L27.8708839,104 L30,105.822346 Z" id="Path" fill="#000000" fill-rule="nonzero"></path>
                            <path d="M22.337747,97.2479424 C23.013976,98.025576 23.4889464,98.7647128 23.7546078,99.4576536 C24.0202693,100.150594 24.0685713,100.797339 23.9075644,101.397888 C23.7465575,101.998437 23.3440402,102.54509 22.7241636,103.037848 L22.5309553,103.191835 C21.9110786,103.684592 21.2831516,103.94637 20.6310736,103.992566 C19.9789956,104.038762 19.3269176,103.869377 18.6667892,103.492109 C18.0066608,103.114841 17.3304318,102.529691 16.6542027,101.752058 C15.9779736,100.974424 15.5110536,100.235287 15.2453922,99.5423464 C14.9797307,98.8494056 14.9314287,98.2026608 15.0924356,97.6021122 C15.2534425,97.0015635 15.6479095,96.4549102 16.2677861,95.9698516 L16.4609944,95.8158648 C17.080871,95.3231069 17.7168484,95.0536299 18.3689264,95.0074339 C19.0210044,94.9612378 19.6730824,95.1306233 20.3332108,95.5078911 C20.9933392,95.8851589 21.6615179,96.4703089 22.337747,97.2479424 Z M21.0496916,98.2642556 C20.6552246,97.8099944 20.2285563,97.5559161 19.7616362,97.5020207 C19.2947162,97.4481253 18.8116954,97.6252102 18.312574,98.0178766 L18.1998691,98.1102687 C17.8617546,98.3797457 17.6282946,98.656922 17.5075394,98.949497 C17.3867842,99.242072 17.3626331,99.534647 17.4350863,99.827222 C17.5155897,100.119797 17.684647,100.420071 17.9422581,100.720346 C18.336725,101.182306 18.7714437,101.436385 19.2303134,101.49028 C19.6891831,101.544175 20.1722039,101.37479 20.687426,100.966725 L20.8001309,100.874333 C21.1382454,100.604856 21.3717054,100.327679 21.4924606,100.035104 C21.6132158,99.7425293 21.6373669,99.4499543 21.5568634,99.1496799 C21.4844103,98.8725036 21.315353,98.5722293 21.0496916,98.2642556 Z" id="Shape" fill="#000000" fill-rule="nonzero"></path>
                            <polygon id="Path" fill="#000000" fill-rule="nonzero" points="18 92.3769231 10.4250635 97 9 94.6230769 16.5749365 90"></polygon>
                            <path d="M13.3221057,83.6173475 C13.7330405,84.6208175 13.9543131,85.519085 13.9938261,86.3040575 C14.0333391,87.0890301 13.8831898,87.7607076 13.5433783,88.3190901 C13.2035668,88.8693801 12.6740931,89.3063751 11.9549571,89.6138901 L11.7652949,89.6948151 C11.0619641,89.9942376 10.3981463,90.0751626 9.77384144,89.9294976 C9.1495366,89.7838326 8.57264731,89.4196701 8.04317358,88.8370101 C7.52160244,88.2543501 7.04744686,87.4612851 6.64441462,86.4578151 C6.24928497,85.486715 6.03591496,84.6208175 6.00430459,83.8601225 C5.97269421,83.091335 6.11494089,82.443935 6.4389472,81.9017375 C6.76295351,81.35954 7.25291428,80.954915 7.91673209,80.6716775 C8.04317358,80.61503 8.18542025,80.5583825 8.34347211,80.5098275 C8.50152397,80.4612725 8.65957583,80.404625 8.84133547,80.3479775 L11.4175808,86.6763126 L9.99511405,87.2832501 L8.50942656,83.641625 L8.48571879,83.6497175 C8.25654359,83.7468275 8.09058914,83.900585 7.97995283,84.1028975 C7.86931653,84.30521 7.82190097,84.56417 7.82980357,84.8555 C7.83770616,85.14683 7.92463468,85.4786225 8.06688136,85.8346925 C8.22493322,86.2231325 8.42249804,86.5306476 8.66747842,86.7491451 C8.90455621,86.9757351 9.18114697,87.0971226 9.49725069,87.1375851 C9.81335441,87.1699551 10.1531659,87.1133076 10.5245878,86.9514576 L10.967133,86.7653301 C11.3464574,86.6034801 11.6309508,86.393075 11.820613,86.1422075 C12.0102753,85.89134 12.1051064,85.60001 12.1209116,85.27631 C12.1288142,84.95261 12.0576908,84.5884475 11.899639,84.2000075 C11.7811001,83.9086775 11.6546586,83.673995 11.5045093,83.479775 C11.3622626,83.2936475 11.2121134,83.1479825 11.0461589,83.04278 C10.8881071,82.94567 10.7063474,82.88093 10.5166852,82.8566525 L9.63949736,80 C10.3902437,80.0080925 11.0698667,80.3156075 11.6783664,80.9144525 C12.286866,81.5294825 12.8400475,82.42775 13.3221057,83.6173475 Z" id="Path" fill="#000000" fill-rule="nonzero"></path>
                            <polygon id="Path" fill="#000000" fill-rule="nonzero" points="9.70637119 78 9 75.5259259 11.2936288 75 12 77.4740741"></polygon>
                        </g>
                    </g>
                </g>
            </g>
        </g>
    </g>
</svg>